<svg width="156" height="64" viewBox="0 0 156 64" fill="none" xmlns="http://www.w3.org/2000/svg">
<path d="M0 32C0 14.3269 14.3269 0 32 0H124C141.673 0 156 14.3269 156 32V32C156 49.6731 141.673 64 124 64H32C14.3269 64 0 49.6731 0 32V32Z" fill="#323232"/>
<rect x="10" y="10" width="44" height="44" rx="22" fill="url(#paint0_linear_25_839)"/>
<g clip-path="url(#clip0_25_839)">
<path d="M31.9979 20L31.8369 20.5469V36.4161L31.9979 36.5767L39.364 32.2225L31.9979 20Z" fill="#343434"/>
<path d="M31.9979 20L24.6315 32.2225L31.9979 36.5767V28.8743V20Z" fill="#8C8C8C"/>
<path d="M31.9979 37.9714L31.9071 38.082V43.7349L31.9979 43.9998L39.3685 33.6194L31.9979 37.9714Z" fill="#3C3C3B"/>
<path d="M31.9979 43.9998V37.9714L24.6315 33.6194L31.9979 43.9998Z" fill="#8C8C8C"/>
<path d="M31.9979 36.5767L39.364 32.2225L31.9979 28.8743V36.5767Z" fill="#141414"/>
<path d="M24.6315 32.2225L31.9979 36.5767V28.8743L24.6315 32.2225Z" fill="#393939"/>
</g>
<path d="M63.2784 37.5V25.8636H70.5739V27.375H65.0341V30.9205H70.1932V32.4261H65.0341V35.9886H70.642V37.5H63.2784ZM76.8565 28.7727V30.1364H72.0895V28.7727H76.8565ZM73.3679 26.6818H75.0668V34.9375C75.0668 35.267 75.116 35.5152 75.2145 35.6818C75.313 35.8447 75.4399 35.9564 75.5952 36.017C75.7543 36.0739 75.9266 36.1023 76.1122 36.1023C76.2486 36.1023 76.3679 36.0928 76.4702 36.0739C76.5724 36.0549 76.652 36.0398 76.7088 36.0284L77.0156 37.4318C76.9171 37.4697 76.777 37.5076 76.5952 37.5455C76.4134 37.5871 76.1861 37.6098 75.9134 37.6136C75.4664 37.6212 75.0497 37.5417 74.6634 37.375C74.277 37.2083 73.9645 36.9508 73.7259 36.6023C73.4872 36.2538 73.3679 35.8163 73.3679 35.2898V26.6818ZM80.6222 32.3182V37.5H78.9233V25.8636H80.5994V30.1932H80.7074C80.9119 29.7235 81.2244 29.3504 81.6449 29.0739C82.0653 28.7973 82.6146 28.6591 83.2926 28.6591C83.8911 28.6591 84.4138 28.7822 84.8608 29.0284C85.3116 29.2746 85.66 29.642 85.9062 30.1307C86.1562 30.6155 86.2812 31.2216 86.2812 31.9489V37.5H84.5824V32.1534C84.5824 31.5133 84.4176 31.017 84.0881 30.6648C83.7585 30.3087 83.3002 30.1307 82.7131 30.1307C82.3116 30.1307 81.9517 30.2159 81.6335 30.3864C81.3191 30.5568 81.071 30.8068 80.8892 31.1364C80.7112 31.4621 80.6222 31.8561 80.6222 32.3182ZM92.3097 37.6761C91.4498 37.6761 90.7093 37.4924 90.0881 37.125C89.4706 36.7538 88.9934 36.233 88.6562 35.5625C88.3229 34.8883 88.1562 34.0985 88.1562 33.1932C88.1562 32.2992 88.3229 31.5114 88.6562 30.8295C88.9934 30.1477 89.4631 29.6155 90.0653 29.233C90.6714 28.8504 91.3797 28.6591 92.1903 28.6591C92.6828 28.6591 93.16 28.7405 93.6222 28.9034C94.0843 29.0663 94.4991 29.322 94.8665 29.6705C95.2339 30.0189 95.5237 30.4716 95.7358 31.0284C95.9479 31.5814 96.054 32.2538 96.054 33.0455V33.6477H89.1165V32.375H94.3892C94.3892 31.928 94.2983 31.5322 94.1165 31.1875C93.9347 30.839 93.679 30.5644 93.3494 30.3636C93.0237 30.1629 92.6411 30.0625 92.2017 30.0625C91.7244 30.0625 91.3078 30.1799 90.9517 30.4148C90.5994 30.6458 90.3267 30.9489 90.1335 31.3239C89.9441 31.6951 89.8494 32.0985 89.8494 32.5341V33.5284C89.8494 34.1117 89.9517 34.608 90.1562 35.017C90.3646 35.4261 90.6544 35.7386 91.0256 35.9545C91.3968 36.1667 91.8305 36.2727 92.3267 36.2727C92.6487 36.2727 92.9422 36.2273 93.2074 36.1364C93.4725 36.0417 93.7017 35.9015 93.8949 35.7159C94.0881 35.5303 94.2358 35.3011 94.3381 35.0284L95.946 35.3182C95.8172 35.7917 95.5862 36.2064 95.2528 36.5625C94.9233 36.9148 94.5085 37.1894 94.0085 37.3864C93.5123 37.5795 92.946 37.6761 92.3097 37.6761ZM97.9389 37.5V28.7727H99.581V30.1591H99.6719C99.831 29.6894 100.111 29.3201 100.513 29.0511C100.918 28.7784 101.376 28.642 101.888 28.642C101.994 28.642 102.119 28.6458 102.263 28.6534C102.411 28.661 102.526 28.6705 102.609 28.6818V30.3068C102.541 30.2879 102.42 30.267 102.246 30.2443C102.071 30.2178 101.897 30.2045 101.723 30.2045C101.321 30.2045 100.964 30.2898 100.649 30.4602C100.339 30.6269 100.092 30.8598 99.9105 31.1591C99.7287 31.4545 99.6378 31.7917 99.6378 32.1705V37.5H97.9389ZM107.528 37.6761C106.669 37.6761 105.928 37.4924 105.307 37.125C104.689 36.7538 104.212 36.233 103.875 35.5625C103.542 34.8883 103.375 34.0985 103.375 33.1932C103.375 32.2992 103.542 31.5114 103.875 30.8295C104.212 30.1477 104.682 29.6155 105.284 29.233C105.89 28.8504 106.598 28.6591 107.409 28.6591C107.902 28.6591 108.379 28.7405 108.841 28.9034C109.303 29.0663 109.718 29.322 110.085 29.6705C110.453 30.0189 110.742 30.4716 110.955 31.0284C111.167 31.5814 111.273 32.2538 111.273 33.0455V33.6477H104.335V32.375H109.608C109.608 31.928 109.517 31.5322 109.335 31.1875C109.153 30.839 108.898 30.5644 108.568 30.3636C108.242 30.1629 107.86 30.0625 107.42 30.0625C106.943 30.0625 106.527 30.1799 106.17 30.4148C105.818 30.6458 105.545 30.9489 105.352 31.3239C105.163 31.6951 105.068 32.0985 105.068 32.5341V33.5284C105.068 34.1117 105.17 34.608 105.375 35.017C105.583 35.4261 105.873 35.7386 106.244 35.9545C106.616 36.1667 107.049 36.2727 107.545 36.2727C107.867 36.2727 108.161 36.2273 108.426 36.1364C108.691 36.0417 108.92 35.9015 109.114 35.7159C109.307 35.5303 109.455 35.3011 109.557 35.0284L111.165 35.3182C111.036 35.7917 110.805 36.2064 110.472 36.5625C110.142 36.9148 109.727 37.1894 109.227 37.3864C108.731 37.5795 108.165 37.6761 107.528 37.6761ZM118.686 33.8807V28.7727H120.391V37.5H118.72V35.9886H118.629C118.429 36.4545 118.107 36.8428 117.663 37.1534C117.224 37.4602 116.677 37.6136 116.021 37.6136C115.461 37.6136 114.964 37.4905 114.533 37.2443C114.105 36.9943 113.768 36.625 113.521 36.1364C113.279 35.6477 113.158 35.0436 113.158 34.3239V28.7727H114.857V34.1193C114.857 34.714 115.021 35.1875 115.351 35.5398C115.68 35.892 116.108 36.0682 116.635 36.0682C116.953 36.0682 117.269 35.9886 117.584 35.8295C117.902 35.6705 118.165 35.4299 118.374 35.108C118.586 34.786 118.69 34.3769 118.686 33.8807ZM122.673 37.5V28.7727H124.304V30.1932H124.412C124.594 29.7121 124.891 29.3371 125.304 29.0682C125.717 28.7955 126.211 28.6591 126.787 28.6591C127.37 28.6591 127.859 28.7955 128.253 29.0682C128.651 29.3409 128.944 29.7159 129.134 30.1932H129.224C129.433 29.7273 129.764 29.3561 130.219 29.0795C130.673 28.7992 131.215 28.6591 131.844 28.6591C132.635 28.6591 133.281 28.9072 133.781 29.4034C134.285 29.8996 134.537 30.6477 134.537 31.6477V37.5H132.838V31.8068C132.838 31.2159 132.677 30.7879 132.355 30.5227C132.033 30.2576 131.649 30.125 131.202 30.125C130.649 30.125 130.219 30.2955 129.912 30.6364C129.605 30.9735 129.452 31.4072 129.452 31.9375V37.5H127.759V31.6989C127.759 31.2254 127.611 30.8447 127.315 30.5568C127.02 30.2689 126.635 30.125 126.162 30.125C125.84 30.125 125.543 30.2102 125.27 30.3807C125.001 30.5473 124.783 30.7803 124.616 31.0795C124.454 31.3788 124.372 31.7254 124.372 32.1193V37.5H122.673Z" fill="white"/>
<defs>
<linearGradient id="paint0_linear_25_839" x1="16.5" y1="10" x2="49.5" y2="56.5" gradientUnits="userSpaceOnUse">
<stop stop-color="white"/>
<stop offset="1" stop-color="#D9D9D9" stop-opacity="0.71"/>
</linearGradient>
<clipPath id="clip0_25_839">
<rect width="24" height="24" fill="white" transform="translate(20 20)"/>
</clipPath>
</defs>
</svg>
