<svg width="24" height="24" viewBox="0 0 24 24" fill="none" xmlns="http://www.w3.org/2000/svg">
<g clip-path="url(#clip0_27_1050)">
<path d="M17.3751 2.11145C16.7576 2.72902 16.1918 3.39835 15.6888 4.11207L15.5298 4.06029C14.6127 3.76076 13.6623 3.57586 12.7045 3.51299C12.4161 3.4908 11.34 3.4908 10.9887 3.51299C9.92735 3.58325 9.11379 3.74227 8.1893 4.06399C8.15232 4.07879 8.11903 4.08988 8.08575 4.10097C7.56433 3.39096 6.98375 2.72532 6.34399 2.11515C9.41333 0.543501 13.0041 0.354903 16.2176 1.59373C16.5616 1.72316 16.8981 1.87478 17.2272 2.03749L17.3751 2.11145Z" fill="#F00500"/>
<path d="M23.0996 16.138C22.6337 17.4655 21.9348 18.697 21.0287 19.7694C20.5369 20.3463 19.9933 20.8751 19.409 21.3558C18.0408 22.4578 16.4432 23.2455 14.7385 23.6597C12.8525 24.1145 10.8851 24.1145 8.99916 23.6597C7.29069 23.2455 5.69685 22.4578 4.32859 21.3558C3.74431 20.8751 3.2007 20.3463 2.70887 19.7694C0.101781 16.689 -0.68959 12.4585 0.637991 8.64581C0.889455 7.93949 1.20378 7.25906 1.58098 6.61191C1.75479 6.31607 1.96927 5.98325 2.07282 5.84643C2.42782 7.3737 2.86418 8.71607 3.0269 9.20051C3.0158 9.2264 3.00101 9.25598 2.98622 9.28187C2.12459 11.0273 1.65864 12.7099 1.5477 14.4997C1.5477 14.5219 1.544 14.5478 1.544 14.57C1.51442 15.1062 1.52921 15.3614 1.61796 15.6979C1.89531 16.7518 2.74955 17.913 4.08822 19.052C6.28114 20.9158 9.25432 22.2618 11.5064 22.4172C13.8546 22.5762 17.3197 21.2042 19.6272 19.1999C19.9896 18.8782 20.3298 18.538 20.6479 18.1756C20.8771 17.9093 21.2173 17.4508 21.1915 17.4508C21.1841 17.4508 21.1915 17.4434 21.2063 17.436C21.2173 17.4286 21.2284 17.4175 21.221 17.4101C21.2173 17.4064 21.2247 17.3953 21.2358 17.3916C21.2469 17.3879 21.2543 17.3805 21.2506 17.3731C21.2469 17.3657 21.2506 17.3583 21.2654 17.3546C21.2765 17.3509 21.2802 17.3398 21.2765 17.3324C21.2728 17.325 21.2765 17.3176 21.2839 17.3176C21.2913 17.3176 21.2987 17.3065 21.2987 17.2991C21.2987 17.2917 21.3061 17.2806 21.3135 17.2806C21.3209 17.2806 21.3283 17.2732 21.3283 17.2659C21.3394 17.2363 21.3579 17.2067 21.3764 17.1808C21.4318 17.0957 21.6537 16.7001 21.6833 16.6335C21.8941 16.1565 22.0272 15.7312 22.0901 15.3059C22.1197 15.1025 22.1381 14.729 22.1234 14.6403C22.1197 14.6255 22.1197 14.5996 22.116 14.5589C22.1086 14.485 22.1049 14.374 22.0975 14.2631C22.0901 14.0967 22.0753 13.8637 22.0642 13.7491C21.9052 12.0702 21.4762 10.6982 20.6626 9.24489C20.6294 9.18942 20.5998 9.13395 20.5813 9.08957C20.5739 9.07848 20.5702 9.06739 20.5665 9.05999C20.6811 8.71608 21.1508 7.27755 21.5243 5.63194L21.5317 5.63934L21.5871 5.7133C21.6833 5.84273 21.9385 6.22732 22.0531 6.41222C22.5745 7.26276 22.9813 8.17617 23.2697 9.13025C23.9391 11.4267 23.8836 13.8748 23.0996 16.138Z" fill="#F00500"/>
<path d="M18.2996 11.7189C18.2885 11.778 18.1147 11.9555 17.9409 12.085C17.4306 12.4585 16.5172 12.8061 15.589 12.9725C15.0602 13.0686 14.5313 13.0834 14.3723 13.0058C14.2688 12.954 14.254 12.9133 14.291 12.7802C14.3686 12.5028 14.6201 12.1996 15.0121 11.9148C15.2118 11.7706 16.0216 11.2788 16.3988 11.0717C17.0201 10.7315 17.523 10.5281 17.8633 10.48C17.9705 10.4652 18.0999 10.4615 18.1406 10.48C18.2072 10.5059 18.2811 10.7019 18.3107 10.9386C18.3255 11.0643 18.3181 11.619 18.2996 11.7189Z" fill="black"/>
<path d="M9.58714 12.9429C9.56495 12.9873 9.45401 13.0353 9.32828 13.0538C9.20255 13.0723 8.81796 13.0612 8.59977 13.0353C7.81579 12.9318 6.98374 12.6914 6.37727 12.3956C6.03705 12.2292 5.79298 12.0628 5.61178 11.8816L5.50824 11.7743L5.49714 11.6338C5.47865 11.3897 5.48235 11.0051 5.51193 10.8683C5.53042 10.7537 5.5711 10.6427 5.62657 10.5429C5.65616 10.5059 5.65616 10.5059 5.78929 10.5059C5.952 10.5059 6.08882 10.5318 6.3107 10.6021C6.76556 10.7426 7.4423 11.0828 8.26695 11.5783C8.94739 11.9851 9.20255 12.1848 9.39854 12.4584C9.53167 12.6286 9.62042 12.8689 9.58714 12.9429Z" fill="black"/>
<path d="M14.8235 18.0905C14.8235 18.1016 14.7792 18.2791 14.7237 18.4899C14.6682 18.7007 14.6239 18.8708 14.6239 18.8782C14.5832 18.8819 14.5462 18.8856 14.5055 18.8819H14.3872L14.2245 19.2665C14.1357 19.4772 14.0544 19.6732 14.0433 19.7028L14.0211 19.7546L13.9434 19.6289L13.8658 19.5031V18.4788L13.8362 18.4862C13.7733 18.501 13.3258 18.5601 13.1299 18.5786C12.32 18.66 11.5064 18.6415 10.7003 18.5269C10.5708 18.5084 10.4599 18.4936 10.4562 18.4973C10.4525 18.501 10.4562 18.7376 10.4636 19.0298L10.4747 19.5549L10.4118 19.651C10.3785 19.7028 10.3452 19.7472 10.3452 19.7509C10.3342 19.762 10.2972 19.7028 10.2121 19.5327C10.1197 19.3552 10.0531 19.1666 10.005 18.9706L9.97914 18.8634L9.8645 18.8708L9.74987 18.8819L9.72028 18.745C9.70549 18.6711 9.687 18.5564 9.6796 18.4936L9.66851 18.3752L9.57236 18.2902C9.51689 18.2421 9.46142 18.194 9.45033 18.1866C9.43184 18.1718 9.42444 18.146 9.42444 18.1238V18.0794L9.88669 18.0831L10.3489 18.0868L10.3637 18.1349L10.3785 18.1829L10.5375 18.1903C10.6263 18.194 10.9073 18.2014 11.1588 18.2088L11.6211 18.2199L11.7394 18.035L11.8614 17.8501H12.0168L12.0131 17.4655L12.0094 17.0809L11.806 16.9922C11.1514 16.7037 10.7668 16.3746 10.6226 15.9752C10.593 15.8939 10.593 15.8643 10.5856 15.4945C10.5819 15.1284 10.5819 15.0951 10.6078 15.0138C10.6596 14.8289 10.8038 14.6846 10.9887 14.6366C11.0516 14.6181 11.218 14.6181 12.0907 14.6181L13.1188 14.6218L13.2334 14.6772C13.3702 14.7438 13.4331 14.7919 13.5107 14.8954C13.5995 15.0138 13.6254 15.1062 13.6254 15.3318C13.6254 15.6535 13.6032 15.9309 13.5699 16.0418C13.5218 16.1934 13.4479 16.3376 13.3554 16.4671C13.1705 16.7037 12.834 16.9404 12.5271 17.0477L12.4383 17.0809L12.442 17.4692L12.4457 17.8575L12.5271 17.8649L12.6084 17.8723L12.7194 18.0387L12.8266 18.2051H13.3222C13.5958 18.2051 13.8362 18.2088 13.8584 18.2125C13.8953 18.2199 13.9027 18.2162 13.9397 18.1534L13.9841 18.0868H14.4094C14.7274 18.072 14.8235 18.0794 14.8235 18.0905Z" fill="black"/>
<path d="M12.871 19.1518C12.8007 19.1925 12.7526 19.211 12.7415 19.2036C12.7304 19.1999 12.6787 19.1555 12.6232 19.1148L12.5233 19.0335L12.4198 19.1444C12.1942 19.3885 12.1868 19.3996 12.1203 19.4033C12.0167 19.4144 11.9945 19.3959 11.8688 19.2073C11.8022 19.1111 11.7505 19.0298 11.7505 19.0298C11.7505 19.0298 11.7024 19.0224 11.6469 19.0187L11.5434 19.0076L11.4953 19.1074L11.4472 19.2073L11.3622 19.1814C11.2956 19.1592 11.229 19.1333 11.1662 19.1037L11.0552 19.0483V18.8375L12.0389 18.8412L13.0226 18.8449L13.0263 18.9447C13.03 19.063 13.0337 19.0594 12.871 19.1518Z" fill="black"/>
<path d="M22.116 14.6402C22.1123 14.6254 22.1123 14.5996 22.1086 14.5589C21.221 14.4627 18.6879 14.4036 16.336 16.345C16.336 16.345 15.5779 12.8689 12.0278 12.8689C8.47774 12.8689 7.16126 16.345 7.16126 16.345C5.17174 14.2039 2.50918 14.3592 1.5477 14.4997C1.5477 14.5219 1.544 14.5478 1.544 14.57C1.51441 15.1062 1.52921 15.3613 1.61796 15.6979C1.89531 16.7518 2.74955 17.913 4.08822 19.0519C6.28114 20.9157 9.25432 22.2618 11.5064 22.4171C13.8546 22.5761 17.3197 21.2042 19.6272 19.1999C19.9896 18.8781 20.3298 18.5379 20.6479 18.1755C20.8771 17.9093 21.2174 17.4507 21.1915 17.4507C21.1841 17.4507 21.1915 17.4433 21.2063 17.4359C21.2174 17.4285 21.2284 17.4174 21.221 17.41C21.2173 17.4063 21.2247 17.3952 21.2358 17.3915C21.2469 17.3878 21.2543 17.3805 21.2506 17.3731C21.2469 17.3657 21.2506 17.3583 21.2654 17.3546C21.2765 17.3509 21.2802 17.3398 21.2765 17.3324C21.2728 17.325 21.2765 17.3176 21.2839 17.3176C21.2913 17.3176 21.2987 17.3065 21.2987 17.2991C21.2987 17.2917 21.3061 17.2806 21.3135 17.2806C21.3209 17.2806 21.3283 17.2732 21.3283 17.2658C21.3394 17.2362 21.3579 17.2066 21.3764 17.1808C21.4318 17.0957 21.6537 16.7 21.6833 16.6335C21.8941 16.1564 22.0272 15.7311 22.0901 15.3059C22.1123 15.1025 22.1308 14.729 22.116 14.6402ZM12.871 19.1518C12.8007 19.1925 12.7526 19.211 12.7415 19.2036C12.7304 19.1999 12.6787 19.1555 12.6232 19.1148L12.5234 19.0335L12.4198 19.1444C12.1942 19.3885 12.1868 19.3996 12.1203 19.4033C12.0167 19.4144 11.9945 19.3959 11.8688 19.2073C11.8022 19.1111 11.7505 19.0298 11.7505 19.0298C11.7505 19.0298 11.7024 19.0224 11.6469 19.0187L11.5434 19.0076L11.4953 19.1074L11.4472 19.2073L11.3622 19.1814C11.2956 19.1592 11.2291 19.1333 11.1662 19.1037L11.0553 19.0482V18.8375L12.0389 18.8412L13.0226 18.8449L13.0263 18.9447C13.03 19.063 13.0337 19.0593 12.871 19.1518ZM14.72 18.4862C14.6645 18.6969 14.6201 18.867 14.6201 18.8744C14.5794 18.8781 14.5425 18.8818 14.5018 18.8781H14.3834L14.2244 19.2664C14.1357 19.4772 14.0543 19.6732 14.0432 19.7028L14.021 19.7546L13.9434 19.6288L13.8657 19.5031V18.4788L13.8361 18.4862C13.7733 18.5009 13.3258 18.5601 13.1298 18.5786C12.32 18.66 11.5064 18.6415 10.7002 18.5268C10.5708 18.5083 10.4599 18.4935 10.4562 18.4972C10.4525 18.5009 10.4562 18.7376 10.4636 19.0298L10.4747 19.5549L10.4118 19.651C10.3785 19.7028 10.3452 19.7472 10.3452 19.7509C10.3341 19.762 10.2972 19.7028 10.2121 19.5327C10.1197 19.3552 10.0531 19.1666 10.005 18.9706L9.97913 18.8633L9.86449 18.8707L9.74986 18.8818L9.72027 18.745C9.70548 18.6711 9.68699 18.5564 9.67959 18.4935L9.6685 18.3752L9.57235 18.2902C9.51688 18.2421 9.46141 18.194 9.45032 18.1866C9.43183 18.1718 9.42443 18.1459 9.42443 18.1237V18.0794L9.88668 18.0831L10.3489 18.0868L10.3637 18.1348L10.3785 18.1829L10.5375 18.1903C10.6263 18.194 10.9073 18.2014 11.1588 18.2088L11.621 18.2199L11.7394 18.035L11.8614 17.8501H12.0167L12.013 17.4655L12.0093 17.0809L11.8059 16.9922C11.1514 16.7037 10.7668 16.3746 10.6226 15.9752C10.593 15.8939 10.593 15.8643 10.5856 15.4945C10.5819 15.1284 10.5819 15.0951 10.6078 15.0137C10.6596 14.8288 10.8038 14.6846 10.9887 14.6365C11.0516 14.618 11.218 14.618 12.0907 14.618L13.1187 14.6217L13.2334 14.6772C13.3702 14.7438 13.4331 14.7919 13.5107 14.8954C13.5995 15.0137 13.6254 15.1062 13.6254 15.3318C13.6254 15.6535 13.6032 15.9308 13.5699 16.0418C13.5218 16.1934 13.4479 16.3376 13.3554 16.467C13.1705 16.7037 12.834 16.9404 12.5271 17.0476L12.4383 17.0809L12.442 17.4692L12.4457 17.8575L12.5271 17.8649L12.6084 17.8723L12.7194 18.0387L12.8266 18.2051H13.3221C13.5958 18.2051 13.8361 18.2088 13.8583 18.2125C13.8953 18.2199 13.9027 18.2162 13.9397 18.1533L13.9841 18.0868H14.4093C14.7385 18.0868 14.8346 18.0905 14.8346 18.1016C14.8235 18.0979 14.7754 18.2791 14.72 18.4862Z" fill="white"/>
<path d="M22.0864 14.2631C22.079 14.0966 22.0642 13.8637 22.0531 13.749C21.8941 12.0701 21.4651 10.6982 20.6515 9.24487C20.6183 9.1894 20.5887 9.13393 20.5702 9.08956C20.5628 9.07846 20.5591 9.06737 20.5554 9.05997C20.67 8.71606 21.1397 7.27754 21.5132 5.63193C22.0198 3.39834 22.3415 0.787561 21.3578 0.00358658C21.3578 0.00358658 19.6568 -0.122145 17.3788 2.11144C16.7612 2.72901 16.1954 3.39834 15.6925 4.11206L15.5335 4.06028C14.6164 3.76075 13.666 3.57585 12.7082 3.51298C12.4198 3.49079 11.3437 3.49079 10.9924 3.51298C9.93104 3.58324 9.11748 3.74226 8.19298 4.06398C8.156 4.07877 8.12272 4.08987 8.08943 4.10096C7.56802 3.39095 6.98743 2.72531 6.34768 2.11514C3.97726 -0.129541 2.21332 -0.000111639 2.21332 -0.000111639C1.17048 0.809749 1.52549 3.53887 2.0654 5.84642C2.42041 7.37369 2.85677 8.71606 3.01948 9.2005C3.00839 9.22638 2.9936 9.25597 2.9788 9.28185C2.11717 11.0273 1.65122 12.7099 1.54028 14.4997C2.50546 14.3592 5.16432 14.2002 7.15754 16.345C7.15754 16.345 8.47403 12.8689 12.0241 12.8689C15.5742 12.8689 16.3323 16.345 16.3323 16.345C18.6842 14.4036 21.2173 14.4664 22.1048 14.5589C22.1011 14.4849 22.0937 14.374 22.0864 14.2631ZM3.7184 7.80635C3.7184 7.80635 2.33535 4.34873 2.69036 2.374C2.74953 2.04118 2.86047 1.74904 3.03427 1.52716C3.03427 1.52716 4.60222 1.68248 7.13165 4.49295C7.13165 4.49295 6.65092 4.72592 6.00747 5.22146C6.00747 5.22146 6.00376 5.22515 6.00007 5.22515C5.30115 5.76136 4.40623 6.6119 3.7184 7.80635ZM9.58712 12.9429C9.56494 12.9872 9.454 13.0353 9.32826 13.0538C9.20253 13.0723 8.81794 13.0612 8.59976 13.0353C7.81578 12.9318 6.98374 12.6914 6.37727 12.3956C6.03705 12.2292 5.79298 12.0627 5.61178 11.8815L5.50824 11.7743L5.49714 11.6338C5.47865 11.3897 5.48235 11.0051 5.51193 10.8683C5.53042 10.7537 5.5711 10.6427 5.62657 10.5429C5.65615 10.5059 5.65615 10.5059 5.78928 10.5059C5.95199 10.5059 6.08882 10.5318 6.3107 10.602C6.76555 10.7426 7.44229 11.0828 8.26694 11.5783C8.94737 11.9851 9.20253 12.1848 9.39853 12.4584C9.53165 12.6285 9.62041 12.8689 9.58712 12.9429ZM18.2996 11.7188C18.2885 11.778 18.1147 11.9555 17.9409 12.0849C17.4306 12.4584 16.5172 12.806 15.589 12.9724C15.0602 13.0686 14.5313 13.0834 14.3723 13.0057C14.2688 12.954 14.254 12.9133 14.291 12.7802C14.3686 12.5028 14.6201 12.1996 15.0121 11.9148C15.2118 11.7706 16.0216 11.2788 16.3988 11.0717C17.0201 10.7315 17.523 10.5281 17.8632 10.48C17.9705 10.4652 18.0999 10.4615 18.1406 10.48C18.2072 10.5059 18.2811 10.7019 18.3107 10.9386C18.3255 11.0643 18.3181 11.619 18.2996 11.7188ZM17.6857 5.22146L17.6783 5.21776C17.0571 4.72223 16.5911 4.48925 16.5911 4.48925C19.0355 1.67878 20.548 1.52346 20.548 1.52346C20.7144 1.74904 20.8216 2.03748 20.8808 2.3703C21.2247 4.34503 19.8897 7.80635 19.8897 7.80635C19.3313 6.81159 18.5807 5.93147 17.6857 5.22146Z" fill="#FFA409"/>
<path d="M20.8845 2.37031C20.5961 2.33333 19.2315 2.32593 17.6858 5.22146L17.6784 5.21777C17.0571 4.72224 16.5912 4.48926 16.5912 4.48926C19.0355 1.67878 20.548 1.52347 20.548 1.52347C20.7181 1.74905 20.8254 2.03749 20.8845 2.37031Z" fill="#FF9300"/>
<path d="M19.8935 7.80636C19.3314 6.8079 18.5844 5.93148 17.6858 5.22146C19.2315 2.32593 20.5924 2.33333 20.8845 2.37031C21.2285 4.34873 19.8935 7.80636 19.8935 7.80636Z" fill="#FF8300"/>
<path d="M20.94 2.38141C20.9215 2.37771 20.903 2.37401 20.8845 2.37032L20.94 2.38141Z" fill="#FF8300"/>
<path d="M7.1317 4.48926C7.1317 4.48926 6.65096 4.72224 6.00751 5.21777C6.00751 5.21777 6.00381 5.22146 6.00011 5.22146C4.39888 2.32224 2.98994 2.33333 2.68671 2.37031C2.74587 2.03749 2.85682 1.74535 3.03062 1.52347C3.03432 1.52347 4.60227 1.67878 7.1317 4.48926Z" fill="#FF9300"/>
<path d="M6.00383 5.22146C5.30121 5.76137 4.40629 6.60821 3.71846 7.80636C3.71846 7.80636 2.33541 4.34873 2.69041 2.37031C2.98995 2.33333 4.40259 2.32593 6.00383 5.22146Z" fill="#FF8300"/>
<path d="M2.69039 2.37032C2.6719 2.37401 2.64972 2.37771 2.63123 2.38141L2.69039 2.37032Z" fill="#FF8300"/>
<path d="M16.1511 9.72563C16.1511 9.72563 14.9677 9.79959 15.1156 8.87509C15.2636 7.95059 16.1881 7.83965 16.4469 7.87663C16.7058 7.91361 17.7412 8.28341 17.5563 9.05999C17.3714 9.83657 17.1126 9.68865 16.9646 9.72563C16.8167 9.76261 16.1511 9.72563 16.1511 9.72563Z" fill="white"/>
<path d="M7.42378 9.72563C7.42378 9.72563 6.24043 9.79959 6.38835 8.87509C6.53626 7.95059 7.46076 7.83965 7.71962 7.87663C7.97848 7.91361 9.01391 8.28341 8.82902 9.05999C8.64412 9.83657 8.38526 9.68865 8.23734 9.72563C8.08942 9.76261 7.42378 9.72563 7.42378 9.72563Z" fill="white"/>
</g>
<defs>
<clipPath id="clip0_27_1050">
<rect width="23.73" height="24" fill="white"/>
</clipPath>
</defs>
</svg>
