<svg width="28" height="24" viewBox="0 0 28 24" fill="none" xmlns="http://www.w3.org/2000/svg">
<g clip-path="url(#clip0_27_1018)">
<path fill-rule="evenodd" clip-rule="evenodd" d="M5.05162 0.117859L0.0211088 10.6845C0.00196626 10.7238 -0.00409989 10.7682 0.00379747 10.8112C0.0116948 10.8542 0.0331414 10.8935 0.0650009 10.9234L13.6512 23.9423C13.6898 23.9793 13.7412 24 13.7947 24C13.8481 24 13.8995 23.9793 13.9381 23.9423L27.5243 10.9242C27.5562 10.8943 27.5777 10.855 27.5855 10.812C27.5934 10.769 27.5874 10.7246 27.5682 10.6853L22.5377 0.118672C22.5215 0.0831845 22.4954 0.0531224 22.4625 0.0320781C22.4297 0.0110339 22.3914 -0.00010231 22.3524 4.71131e-07H5.23857C5.19936 -0.000487351 5.16085 0.0103806 5.12767 0.0312933C5.0945 0.052206 5.06809 0.08227 5.05162 0.117859V0.117859V0.117859Z" fill="#50AF95"/>
<path fill-rule="evenodd" clip-rule="evenodd" d="M15.5402 11.7696C15.4427 11.7769 14.9387 11.807 13.8146 11.807C12.9205 11.807 12.2857 11.7801 12.063 11.7696C8.60769 11.6176 6.02863 11.0161 6.02863 10.2959C6.02863 9.57578 8.60769 8.97511 12.063 8.82068V11.1705C12.2889 11.1868 12.9359 11.225 13.83 11.225C14.9029 11.225 15.4402 11.1803 15.5369 11.1713V8.8223C18.9849 8.97592 21.5583 9.57741 21.5583 10.2959C21.5583 11.0145 18.9857 11.6159 15.5369 11.7688L15.5402 11.7696ZM15.5402 8.57927V6.47652H20.3521V3.26996H7.2511V6.47652H12.0622V8.57846C8.1517 8.75809 5.21094 9.5327 5.21094 10.4609C5.21094 11.3892 8.1517 12.163 12.0622 12.3434V19.0817H15.5394V12.341C19.4409 12.1613 22.3768 11.3875 22.3768 10.4601C22.3768 9.5327 19.4433 8.7589 15.5394 8.57846L15.5402 8.57927Z" fill="white"/>
</g>
<defs>
<clipPath id="clip0_27_1018">
<rect width="27.5894" height="24" fill="white"/>
</clipPath>
</defs>
</svg>
