<svg width="137" height="24" viewBox="0 0 137 24" fill="none" xmlns="http://www.w3.org/2000/svg">
<path d="M8.27 22.75H4.23C2.22 22.75 1.25 21.82 1.25 19.9V4.1C1.25 2.18 2.23 1.25 4.23 1.25H8.27C10.28 1.25 11.25 2.18 11.25 4.1V19.9C11.25 21.82 10.27 22.75 8.27 22.75ZM4.23 2.75C2.96 2.75 2.75 3.09 2.75 4.1V19.9C2.75 20.91 2.96 21.25 4.23 21.25H8.27C9.54 21.25 9.75 20.91 9.75 19.9V4.1C9.75 3.09 9.54 2.75 8.27 2.75H4.23Z" fill="white"/>
<path d="M19.77 13.75H15.73C13.72 13.75 12.75 12.82 12.75 10.9V4.1C12.75 2.18 13.73 1.25 15.73 1.25H19.77C21.78 1.25 22.75 2.18 22.75 4.1V10.9C22.75 12.82 21.77 13.75 19.77 13.75ZM15.73 2.75C14.46 2.75 14.25 3.09 14.25 4.1V10.9C14.25 11.91 14.46 12.25 15.73 12.25H19.77C21.04 12.25 21.25 11.91 21.25 10.9V4.1C21.25 3.09 21.04 2.75 19.77 2.75H15.73Z" fill="white"/>
<path d="M19.77 22.75H15.73C13.72 22.75 12.75 21.82 12.75 19.9V18.1C12.75 16.18 13.73 15.25 15.73 15.25H19.77C21.78 15.25 22.75 16.18 22.75 18.1V19.9C22.75 21.82 21.77 22.75 19.77 22.75ZM15.73 16.75C14.46 16.75 14.25 17.09 14.25 18.1V19.9C14.25 20.91 14.46 21.25 15.73 21.25H19.77C21.04 21.25 21.25 20.91 21.25 19.9V18.1C21.25 17.09 21.04 16.75 19.77 16.75H15.73Z" fill="white"/>
<path d="M48.6761 18H44.4382V4.90909H48.8104C50.093 4.90909 51.1946 5.17116 52.1151 5.69531C53.0355 6.2152 53.7408 6.96307 54.2308 7.93892C54.7251 8.91051 54.9723 10.076 54.9723 11.4354C54.9723 12.799 54.723 13.9709 54.2244 14.951C53.7301 15.9311 53.0142 16.6854 52.0767 17.2138C51.1392 17.7379 50.0057 18 48.6761 18ZM46.4134 16.2741H48.5675C49.5646 16.2741 50.3935 16.0866 51.054 15.7116C51.7145 15.3324 52.2088 14.7848 52.5369 14.0689C52.8651 13.3487 53.0291 12.4709 53.0291 11.4354C53.0291 10.4084 52.8651 9.53693 52.5369 8.82102C52.2131 8.10511 51.7294 7.56179 51.0859 7.19105C50.4425 6.82031 49.6435 6.63494 48.6889 6.63494H46.4134V16.2741ZM60.1323 18.2173C59.5101 18.2173 58.9476 18.1023 58.4448 17.8722C57.9419 17.6378 57.5435 17.299 57.2495 16.8558C56.9597 16.4126 56.8148 15.8693 56.8148 15.2259C56.8148 14.6719 56.9213 14.2159 57.1344 13.858C57.3475 13.5 57.6351 13.2166 57.9973 13.0078C58.3596 12.799 58.7644 12.6413 59.2118 12.5348C59.6593 12.4283 60.1152 12.3473 60.5797 12.2919C61.1678 12.2237 61.6451 12.1683 62.0115 12.1257C62.378 12.0788 62.6444 12.0043 62.8105 11.902C62.9767 11.7997 63.0598 11.6335 63.0598 11.4034V11.3587C63.0598 10.8004 62.9022 10.3679 62.5868 10.0611C62.2757 9.75426 61.8113 9.60085 61.1934 9.60085C60.5499 9.60085 60.0428 9.74361 59.6721 10.0291C59.3056 10.3104 59.052 10.6236 58.9114 10.9688L57.1152 10.5597C57.3283 9.96307 57.6394 9.48153 58.0485 9.11506C58.4618 8.74432 58.937 8.47585 59.4739 8.30966C60.0108 8.1392 60.5755 8.05398 61.1678 8.05398C61.5598 8.05398 61.9753 8.10085 62.4142 8.1946C62.8574 8.28409 63.2708 8.45028 63.6543 8.69318C64.0421 8.93608 64.3596 9.28338 64.6067 9.73509C64.8539 10.1825 64.9775 10.7642 64.9775 11.4801V18H63.111V16.6577H63.0343C62.9107 16.9048 62.7253 17.1477 62.4782 17.3864C62.231 17.625 61.9135 17.8232 61.5257 17.9808C61.138 18.1385 60.6735 18.2173 60.1323 18.2173ZM60.5478 16.6832C61.0762 16.6832 61.5279 16.5788 61.9029 16.37C62.2821 16.1612 62.5698 15.8885 62.7658 15.5518C62.9661 15.2109 63.0662 14.8466 63.0662 14.4588V13.1932C62.998 13.2614 62.8659 13.3253 62.6699 13.3849C62.4782 13.4403 62.2587 13.4893 62.0115 13.532C61.7644 13.5703 61.5236 13.6065 61.2892 13.6406C61.0549 13.6705 60.8588 13.696 60.7012 13.7173C60.3304 13.7642 59.9917 13.843 59.6848 13.9538C59.3823 14.0646 59.1394 14.2244 58.9561 14.4332C58.7772 14.6378 58.6877 14.9105 58.6877 15.2514C58.6877 15.7244 58.8624 16.0824 59.2118 16.3253C59.5613 16.5639 60.0066 16.6832 60.5478 16.6832ZM74.8803 10.5788L73.1481 10.8857C73.0756 10.6641 72.9606 10.4531 72.8029 10.2528C72.6495 10.0526 72.4407 9.88849 72.1765 9.76065C71.9123 9.63281 71.582 9.56889 71.1857 9.56889C70.6445 9.56889 70.1928 9.69034 69.8306 9.93324C69.4684 10.1719 69.2873 10.4808 69.2873 10.8601C69.2873 11.1882 69.4087 11.4524 69.6516 11.6527C69.8945 11.853 70.2866 12.017 70.8278 12.1449L72.3874 12.5028C73.2908 12.7116 73.9641 13.0334 74.4073 13.468C74.8505 13.9027 75.0721 14.4673 75.0721 15.1619C75.0721 15.75 74.9016 16.2741 74.5607 16.7344C74.2241 17.1903 73.7532 17.5483 73.1481 17.8082C72.5472 18.0682 71.8505 18.1982 71.0579 18.1982C69.9585 18.1982 69.0614 17.9638 68.3668 17.495C67.6722 17.022 67.2461 16.3509 67.0884 15.4815L68.9357 15.2003C69.0508 15.6818 69.2873 16.0462 69.6452 16.2933C70.0032 16.5362 70.4698 16.6577 71.0451 16.6577C71.6715 16.6577 72.1722 16.5277 72.5472 16.2678C72.9222 16.0036 73.1097 15.6818 73.1097 15.3026C73.1097 14.9957 72.9947 14.7379 72.7646 14.5291C72.5387 14.3203 72.1914 14.1626 71.7227 14.0561L70.0607 13.6918C69.1445 13.483 68.467 13.1506 68.0281 12.6946C67.5934 12.2386 67.3761 11.6612 67.3761 10.9624C67.3761 10.3828 67.538 9.87571 67.8619 9.44105C68.1857 9.00639 68.6332 8.66761 69.2042 8.42472C69.7752 8.17756 70.4293 8.05398 71.1665 8.05398C72.2276 8.05398 73.0629 8.28409 73.6722 8.74432C74.2816 9.20028 74.6843 9.81179 74.8803 10.5788ZM79.0847 12.1705V18H77.1735V4.90909H79.0591V9.77983H79.1806C79.4107 9.25142 79.7623 8.83168 80.2353 8.5206C80.7083 8.20952 81.3262 8.05398 82.089 8.05398C82.7623 8.05398 83.3503 8.19247 83.8532 8.46946C84.3603 8.74645 84.7523 9.1598 85.0293 9.70952C85.3105 10.255 85.4512 10.9368 85.4512 11.755V18H83.54V11.9851C83.54 11.2649 83.3546 10.7067 82.9838 10.3104C82.6131 9.9098 82.0975 9.70952 81.437 9.70952C80.9853 9.70952 80.5804 9.8054 80.2225 9.99716C79.8688 10.1889 79.5897 10.4702 79.3851 10.8409C79.1848 11.2074 79.0847 11.6506 79.0847 12.1705ZM88.155 18V4.90909H90.0662V9.77344H90.1813C90.2921 9.56889 90.4519 9.33239 90.6607 9.06392C90.8695 8.79545 91.1593 8.56108 91.53 8.3608C91.9007 8.15625 92.3908 8.05398 93.0002 8.05398C93.7928 8.05398 94.5002 8.25426 95.1223 8.65483C95.7445 9.0554 96.2324 9.63281 96.5861 10.3871C96.9441 11.1413 97.123 12.049 97.123 13.1101C97.123 14.1712 96.9462 15.081 96.5925 15.8395C96.2388 16.5937 95.753 17.1754 95.1351 17.5845C94.5172 17.9893 93.812 18.1918 93.0194 18.1918C92.4228 18.1918 91.9348 18.0916 91.5556 17.8913C91.1806 17.6911 90.8865 17.4567 90.6735 17.1882C90.4604 16.9197 90.2963 16.6811 90.1813 16.4723H90.0215V18H88.155ZM90.0279 13.0909C90.0279 13.7812 90.128 14.3864 90.3283 14.9062C90.5286 15.4261 90.8184 15.8331 91.1976 16.1271C91.5769 16.4169 92.0414 16.5618 92.5911 16.5618C93.1621 16.5618 93.6394 16.4105 94.0229 16.108C94.4064 15.8011 94.6962 15.3857 94.8922 14.8615C95.0925 14.3374 95.1926 13.7472 95.1926 13.0909C95.1926 12.4432 95.0946 11.8615 94.8986 11.3459C94.7069 10.8303 94.4171 10.4233 94.0293 10.125C93.6458 9.8267 93.1664 9.67756 92.5911 9.67756C92.0371 9.67756 91.5684 9.82031 91.1848 10.1058C90.8056 10.3913 90.5179 10.7898 90.3219 11.3011C90.1259 11.8125 90.0279 12.4091 90.0279 13.0909ZM103.405 18.1982C102.484 18.1982 101.681 17.9872 100.995 17.5653C100.309 17.1435 99.7763 16.5533 99.397 15.7947C99.0178 15.0362 98.8281 14.1499 98.8281 13.1357C98.8281 12.1172 99.0178 11.2266 99.397 10.4638C99.7763 9.70099 100.309 9.10866 100.995 8.68679C101.681 8.26491 102.484 8.05398 103.405 8.05398C104.325 8.05398 105.129 8.26491 105.815 8.68679C106.501 9.10866 107.033 9.70099 107.413 10.4638C107.792 11.2266 107.982 12.1172 107.982 13.1357C107.982 14.1499 107.792 15.0362 107.413 15.7947C107.033 16.5533 106.501 17.1435 105.815 17.5653C105.129 17.9872 104.325 18.1982 103.405 18.1982ZM103.411 16.5938C104.008 16.5938 104.502 16.4361 104.894 16.1207C105.286 15.8054 105.576 15.3857 105.763 14.8615C105.955 14.3374 106.051 13.7599 106.051 13.1293C106.051 12.5028 105.955 11.9276 105.763 11.4034C105.576 10.875 105.286 10.451 104.894 10.1314C104.502 9.81179 104.008 9.65199 103.411 9.65199C102.81 9.65199 102.312 9.81179 101.915 10.1314C101.523 10.451 101.232 10.875 101.04 11.4034C100.852 11.9276 100.759 12.5028 100.759 13.1293C100.759 13.7599 100.852 14.3374 101.04 14.8615C101.232 15.3857 101.523 15.8054 101.915 16.1207C102.312 16.4361 102.81 16.5938 103.411 16.5938ZM112.972 18.2173C112.35 18.2173 111.787 18.1023 111.285 17.8722C110.782 17.6378 110.383 17.299 110.089 16.8558C109.8 16.4126 109.655 15.8693 109.655 15.2259C109.655 14.6719 109.761 14.2159 109.974 13.858C110.187 13.5 110.475 13.2166 110.837 13.0078C111.199 12.799 111.604 12.6413 112.052 12.5348C112.499 12.4283 112.955 12.3473 113.42 12.2919C114.008 12.2237 114.485 12.1683 114.851 12.1257C115.218 12.0788 115.484 12.0043 115.65 11.902C115.817 11.7997 115.9 11.6335 115.9 11.4034V11.3587C115.9 10.8004 115.742 10.3679 115.427 10.0611C115.116 9.75426 114.651 9.60085 114.033 9.60085C113.39 9.60085 112.883 9.74361 112.512 10.0291C112.145 10.3104 111.892 10.6236 111.751 10.9688L109.955 10.5597C110.168 9.96307 110.479 9.48153 110.888 9.11506C111.302 8.74432 111.777 8.47585 112.314 8.30966C112.851 8.1392 113.415 8.05398 114.008 8.05398C114.4 8.05398 114.815 8.10085 115.254 8.1946C115.697 8.28409 116.111 8.45028 116.494 8.69318C116.882 8.93608 117.199 9.28338 117.447 9.73509C117.694 10.1825 117.817 10.7642 117.817 11.4801V18H115.951V16.6577H115.874C115.751 16.9048 115.565 17.1477 115.318 17.3864C115.071 17.625 114.753 17.8232 114.366 17.9808C113.978 18.1385 113.513 18.2173 112.972 18.2173ZM113.388 16.6832C113.916 16.6832 114.368 16.5788 114.743 16.37C115.122 16.1612 115.41 15.8885 115.606 15.5518C115.806 15.2109 115.906 14.8466 115.906 14.4588V13.1932C115.838 13.2614 115.706 13.3253 115.51 13.3849C115.318 13.4403 115.099 13.4893 114.851 13.532C114.604 13.5703 114.363 13.6065 114.129 13.6406C113.895 13.6705 113.699 13.696 113.541 13.7173C113.17 13.7642 112.831 13.843 112.525 13.9538C112.222 14.0646 111.979 14.2244 111.796 14.4332C111.617 14.6378 111.528 14.9105 111.528 15.2514C111.528 15.7244 111.702 16.0824 112.052 16.3253C112.401 16.5639 112.846 16.6832 113.388 16.6832ZM120.363 18V8.18182H122.21V9.74148H122.312C122.491 9.21307 122.807 8.79758 123.259 8.49503C123.714 8.18821 124.23 8.0348 124.805 8.0348C124.925 8.0348 125.065 8.03906 125.227 8.04759C125.393 8.05611 125.523 8.06676 125.617 8.07955V9.90767C125.54 9.88636 125.404 9.86293 125.208 9.83736C125.012 9.80753 124.816 9.79261 124.62 9.79261C124.168 9.79261 123.766 9.88849 123.412 10.0803C123.063 10.2678 122.786 10.5298 122.581 10.8665C122.376 11.1989 122.274 11.5781 122.274 12.0043V18H120.363ZM130.595 18.1918C129.802 18.1918 129.095 17.9893 128.473 17.5845C127.855 17.1754 127.369 16.5937 127.015 15.8395C126.666 15.081 126.491 14.1712 126.491 13.1101C126.491 12.049 126.668 11.1413 127.022 10.3871C127.38 9.63281 127.87 9.0554 128.492 8.65483C129.114 8.25426 129.819 8.05398 130.608 8.05398C131.217 8.05398 131.707 8.15625 132.078 8.3608C132.453 8.56108 132.743 8.79545 132.947 9.06392C133.156 9.33239 133.318 9.56889 133.433 9.77344H133.548V4.90909H135.459V18H133.593V16.4723H133.433C133.318 16.6811 133.152 16.9197 132.934 17.1882C132.721 17.4567 132.427 17.6911 132.052 17.8913C131.677 18.0916 131.192 18.1918 130.595 18.1918ZM131.017 16.5618C131.567 16.5618 132.031 16.4169 132.41 16.1271C132.794 15.8331 133.084 15.4261 133.28 14.9062C133.48 14.3864 133.58 13.7812 133.58 13.0909C133.58 12.4091 133.482 11.8125 133.286 11.3011C133.09 10.7898 132.802 10.3913 132.423 10.1058C132.044 9.82031 131.575 9.67756 131.017 9.67756C130.442 9.67756 129.962 9.8267 129.579 10.125C129.195 10.4233 128.905 10.8303 128.709 11.3459C128.518 11.8615 128.422 12.4432 128.422 13.0909C128.422 13.7472 128.52 14.3374 128.716 14.8615C128.912 15.3857 129.202 15.8011 129.585 16.108C129.973 16.4105 130.45 16.5618 131.017 16.5618Z" fill="#DDDDDD"/>
</svg>
